<svg id="Layer_1" data-name="Layer 1" xmlns="http://www.w3.org/2000/svg" viewBox="0 0 100 100"><defs><style>.cls-1{fill:#ab1d4e;}.cls-2{fill:#fff;}</style></defs><title>Artboard 1 copy 2</title><path class="cls-1" d="M90,3.08H10A6.86,6.86,0,0,0,3.07,9.85V90.17A6.84,6.84,0,0,0,10,96.95H90a6.86,6.86,0,0,0,6.95-6.77V9.85A6.88,6.88,0,0,0,90,3.08Z"/><path class="cls-2" d="M50,18.26c-8.62,0-9.7,0-13.09.19a23.3,23.3,0,0,0-7.71,1.48,16.23,16.23,0,0,0-9.29,9.29,23.3,23.3,0,0,0-1.48,7.71c-.15,3.39-.19,4.47-.19,13.09s0,9.7.19,13.09a23.3,23.3,0,0,0,1.48,7.71,16.23,16.23,0,0,0,9.29,9.29,23.3,23.3,0,0,0,7.71,1.48c3.39.15,4.47.19,13.09.19s9.7,0,13.09-.19a23.3,23.3,0,0,0,7.71-1.48,16.23,16.23,0,0,0,9.29-9.29,23.3,23.3,0,0,0,1.48-7.71c.15-3.39.19-4.47.19-13.09s0-9.7-.19-13.09a23.3,23.3,0,0,0-1.48-7.71,16.23,16.23,0,0,0-9.29-9.29,23.3,23.3,0,0,0-7.71-1.48c-3.39-.15-4.47-.19-13.09-.19ZM50,24c8.48,0,9.48,0,12.83.19a17.57,17.57,0,0,1,5.9,1.09,10.51,10.51,0,0,1,6,6,17.57,17.57,0,0,1,1.09,5.9C76,40.53,76,41.53,76,50s0,9.48-.19,12.83a17.57,17.57,0,0,1-1.09,5.9,10.51,10.51,0,0,1-6,6,17.57,17.57,0,0,1-5.9,1.09C59.48,76,58.48,76,50,76s-9.48,0-12.83-.19a17.57,17.57,0,0,1-5.9-1.09,10.51,10.51,0,0,1-6-6,17.57,17.57,0,0,1-1.09-5.9C24,59.49,24,58.49,24,50s0-9.48.19-12.83a17.57,17.57,0,0,1,1.09-5.9,10.51,10.51,0,0,1,6-6,17.57,17.57,0,0,1,5.9-1.09C40.52,24,41.52,24,50,24"/><path class="cls-2" d="M50,60.59A10.58,10.58,0,1,1,60.58,50,10.58,10.58,0,0,1,50,60.59Zm0-26.89A16.3,16.3,0,1,0,66.3,50,16.3,16.3,0,0,0,50,33.71Z"/><path class="cls-2" d="M70.76,33.06a3.81,3.81,0,1,1-3.81-3.81,3.81,3.81,0,0,1,3.81,3.81Z"/></svg>